<svg width="379" height="347" viewBox="0 0 379 347" fill="none" xmlns="http://www.w3.org/2000/svg">
<path d="M359.26 0.890869H19.7396C14.5043 0.890869 9.48348 2.97057 5.78159 6.67246C2.0797 10.3743 0 15.3952 0 20.6305L0 244.596C0 249.831 2.0797 254.852 5.78159 258.554C9.48348 262.256 14.5043 264.335 19.7396 264.335H114.924V311.039H68.8122C67.7651 311.039 66.761 311.455 66.0206 312.196C65.2802 312.936 64.8643 313.94 64.8643 314.987V342.228C64.8643 343.275 65.2802 344.279 66.0206 345.019C66.761 345.76 67.7651 346.176 68.8122 346.176H310.188C311.235 346.176 312.239 345.76 312.979 345.019C313.72 344.279 314.136 343.275 314.136 342.228V314.987C314.136 313.94 313.72 312.936 312.979 312.196C312.239 311.455 311.235 311.039 310.188 311.039H264.076V264.335H359.26C361.853 264.335 364.42 263.825 366.814 262.833C369.209 261.841 371.385 260.387 373.218 258.554C375.051 256.721 376.505 254.545 377.497 252.15C378.489 249.755 379 247.188 379 244.596V20.5515C378.979 15.3299 376.89 10.3293 373.191 6.64451C369.491 2.95968 364.482 0.890827 359.26 0.890869ZM7.89583 20.6305C7.89583 17.4893 9.14365 14.4768 11.3648 12.2557C13.5859 10.0345 16.5984 8.7867 19.7396 8.7867H359.26C362.402 8.7867 365.414 10.0345 367.635 12.2557C369.856 14.4768 371.104 17.4893 371.104 20.6305V208.63H7.89583V20.6305ZM306.24 338.28H72.7601V318.935H306.24V338.28ZM256.18 311.039H122.82V264.335H256.18V311.039ZM371.104 244.596C371.104 247.737 369.856 250.749 367.635 252.971C365.414 255.192 362.402 256.44 359.26 256.44H19.7396C16.5984 256.44 13.5859 255.192 11.3648 252.971C9.14365 250.749 7.89583 247.737 7.89583 244.596V216.526H371.104V244.596Z" fill="white"/>
<path d="M244.771 75.3881C244.1 73.6905 245.995 75.0328 191.474 51.2664C190.981 51.0546 190.451 50.9453 189.915 50.9453C189.378 50.9453 188.848 51.0546 188.355 51.2664C133.084 75.1907 135.65 73.8484 134.979 74.9539C133.716 76.5725 134.111 73.0589 134.111 140.766C134.111 141.541 134.34 142.298 134.768 142.944C135.197 143.59 135.805 144.095 136.519 144.398C190.842 167.414 188.434 166.467 188.829 166.467C190.724 167.019 187.96 167.651 242.876 144.398C243.589 144.095 244.198 143.59 244.626 142.944C245.055 142.298 245.283 141.541 245.284 140.766C245.087 72.3088 245.324 76.5725 244.771 75.3881ZM189.697 59.0437L231.151 77.1252L189.5 94.8514L147.889 77.2831L189.697 59.0437ZM141.809 83.126L185.552 101.8V156.557L141.809 138.002V83.126ZM237.191 138.002L193.448 156.557V101.918L237.191 83.284V138.002Z" fill="white"/>
<path d="M278.486 15.6167H257.444C256.397 15.6167 255.392 16.0326 254.652 16.773C253.912 17.5134 253.496 18.5176 253.496 19.5646V26.1576H125.504V19.5646C125.504 18.5176 125.088 17.5134 124.348 16.773C123.608 16.0326 122.603 15.6167 121.556 15.6167H100.514C99.4669 15.6167 98.4627 16.0326 97.7223 16.773C96.982 17.5134 96.566 18.5176 96.566 19.5646V40.607C96.566 41.6541 96.982 42.6582 97.7223 43.3986C98.4627 44.139 99.4669 44.5549 100.514 44.5549H107.067V172.704H100.514C99.4669 172.704 98.4627 173.12 97.7223 173.861C96.982 174.601 96.566 175.605 96.566 176.652V197.695C96.566 198.742 96.982 199.746 97.7223 200.486C98.4627 201.227 99.4669 201.643 100.514 201.643H121.556C122.603 201.643 123.608 201.227 124.348 200.486C125.088 199.746 125.504 198.742 125.504 197.695V191.141H253.496V197.695C253.496 198.742 253.912 199.746 254.652 200.486C255.392 201.227 256.397 201.643 257.444 201.643H278.486C279.533 201.643 280.537 201.227 281.278 200.486C282.018 199.746 282.434 198.742 282.434 197.695V176.652C282.434 175.605 282.018 174.601 281.278 173.861C280.537 173.12 279.533 172.704 278.486 172.704H271.932V44.7128H278.486C279.533 44.7128 280.537 44.2969 281.278 43.5565C282.018 42.8161 282.434 41.812 282.434 40.7649V19.5646C282.434 18.5176 282.018 17.5134 281.278 16.773C280.537 16.0326 279.533 15.6167 278.486 15.6167ZM104.462 36.817V23.5125H117.608V36.6591L104.462 36.817ZM117.608 193.747H104.462V180.6H117.608V193.747ZM274.538 180.6V193.747H261.392V180.6H274.538ZM264.037 172.704H257.444C256.397 172.704 255.392 173.12 254.652 173.861C253.912 174.601 253.496 175.605 253.496 176.652V183.245H125.504V176.652C125.504 175.605 125.088 174.601 124.348 173.861C123.608 173.12 122.603 172.704 121.556 172.704H114.963V44.7128H121.556C122.603 44.7128 123.608 44.2969 124.348 43.5565C125.088 42.8161 125.504 41.812 125.504 40.7649V34.2114H253.496V40.7649C253.496 41.812 253.912 42.8161 254.652 43.5565C255.392 44.2969 256.397 44.7128 257.444 44.7128H264.037V172.704ZM274.538 36.817H261.392V23.5125H274.538V36.817Z" fill="white"/>
<path d="M76.8264 55.648H34.3863C33.0246 55.6428 31.6754 55.9065 30.4159 56.424C29.1564 56.9415 28.0114 57.7026 27.0468 58.6636C26.0821 59.6246 25.3167 60.7666 24.7944 62.0241C24.2721 63.2816 24.0033 64.6299 24.0033 65.9916V108.432C24.0033 111.185 25.0972 113.826 27.0444 115.774C28.9916 117.721 31.6325 118.815 34.3863 118.815H76.8264C78.188 118.815 79.5363 118.546 80.7938 118.024C82.0513 117.501 83.1934 116.736 84.1544 115.771C85.1154 114.807 85.8765 113.662 86.3939 112.402C86.9114 111.143 87.1751 109.793 87.1699 108.432V65.9916C87.1699 63.2483 86.0802 60.6174 84.1404 58.6776C82.2006 56.7378 79.5697 55.648 76.8264 55.648ZM79.2741 108.432C79.2742 109.085 79.0176 109.711 78.5596 110.177C78.1017 110.642 77.4792 110.908 76.8264 110.919H34.3863C33.7266 110.919 33.094 110.657 32.6276 110.19C32.1611 109.724 31.8991 109.091 31.8991 108.432V65.9916C31.9095 65.3388 32.1761 64.7163 32.6414 64.2583C33.1067 63.8004 33.7334 63.5438 34.3863 63.5439H76.8264C77.1478 63.5439 77.4661 63.6072 77.7631 63.7302C78.0601 63.8532 78.3299 64.0335 78.5572 64.2608C78.7845 64.4881 78.9648 64.7579 79.0878 65.0549C79.2108 65.3518 79.2741 65.6701 79.2741 65.9916V108.432Z" fill="white"/>
<path d="M76.8264 128.33H34.3863C33.0228 128.33 31.6726 128.598 30.4129 129.12C29.1532 129.642 28.0085 130.407 27.0444 131.371C26.0802 132.335 25.3154 133.48 24.7936 134.739C24.2718 135.999 24.0033 137.349 24.0033 138.713V151.425C24.0344 154.158 25.1421 156.769 27.0859 158.691C29.0298 160.612 31.6529 161.69 34.3863 161.69H76.8264C78.188 161.69 79.5363 161.421 80.7938 160.899C82.0513 160.376 83.1934 159.611 84.1544 158.646C85.1154 157.682 85.8765 156.537 86.3939 155.277C86.9114 154.018 87.1751 152.668 87.1699 151.307V138.713C87.1751 137.351 86.9114 136.002 86.3939 134.742C85.8765 133.483 85.1154 132.338 84.1544 131.373C83.1934 130.409 82.0513 129.643 80.7938 129.121C79.5363 128.599 78.188 128.33 76.8264 128.33ZM79.2741 151.425C79.2742 152.078 79.0176 152.705 78.5596 153.17C78.1017 153.635 77.4792 153.902 76.8264 153.912H34.3863C33.7266 153.912 33.094 153.65 32.6276 153.184C32.1611 152.717 31.8991 152.085 31.8991 151.425V138.713C31.8991 138.053 32.1611 137.421 32.6276 136.954C33.094 136.488 33.7266 136.226 34.3863 136.226H76.8264C77.4792 136.236 78.1017 136.503 78.5596 136.968C79.0176 137.433 79.2742 138.06 79.2741 138.713V151.425Z" fill="white"/>
<path d="M67.1146 70.5713H44.2561C43.2091 70.5713 42.2049 70.9872 41.4645 71.7276C40.7241 72.468 40.3082 73.4722 40.3082 74.5192C40.3082 75.5663 40.7241 76.5704 41.4645 77.3108C42.2049 78.0512 43.2091 78.4671 44.2561 78.4671H67.1146C68.1616 78.4671 69.1658 78.0512 69.9062 77.3108C70.6465 76.5704 71.0625 75.5663 71.0625 74.5192C71.0625 73.4722 70.6465 72.468 69.9062 71.7276C69.1658 70.9872 68.1616 70.5713 67.1146 70.5713Z" fill="white"/>
<path d="M67.1146 83.2842H44.2561C43.2091 83.2842 42.2049 83.7001 41.4645 84.4405C40.7241 85.1809 40.3082 86.185 40.3082 87.2321C40.3082 88.2791 40.7241 89.2833 41.4645 90.0237C42.2049 90.7641 43.2091 91.18 44.2561 91.18H67.1146C68.1616 91.18 69.1658 90.7641 69.9062 90.0237C70.6465 89.2833 71.0625 88.2791 71.0625 87.2321C71.0625 86.185 70.6465 85.1809 69.9062 84.4405C69.1658 83.7001 68.1616 83.2842 67.1146 83.2842Z" fill="white"/>
<path d="M67.1146 95.9966H44.2561C43.2091 95.9966 42.2049 96.4125 41.4645 97.1529C40.7241 97.8933 40.3082 98.8974 40.3082 99.9445C40.3082 100.992 40.7241 101.996 41.4645 102.736C42.2049 103.476 43.2091 103.892 44.2561 103.892H67.1146C68.1616 103.892 69.1658 103.476 69.9062 102.736C70.6465 101.996 71.0625 100.992 71.0625 99.9445C71.0625 98.8974 70.6465 97.8933 69.9062 97.1529C69.1658 96.4125 68.1616 95.9966 67.1146 95.9966Z" fill="white"/>
<path d="M342.995 64.9653H301.818C300.771 64.9653 299.767 65.3813 299.027 66.1216C298.286 66.862 297.87 67.8662 297.87 68.9132C297.87 69.9603 298.286 70.9645 299.027 71.7049C299.767 72.4452 300.771 72.8612 301.818 72.8612H342.995C344.042 72.8612 345.046 72.4452 345.787 71.7049C346.527 70.9645 346.943 69.9603 346.943 68.9132C346.943 67.8662 346.527 66.862 345.787 66.1216C345.046 65.3813 344.042 64.9653 342.995 64.9653Z" fill="white"/>
<path d="M342.995 79.77H301.818C300.771 79.77 299.767 80.186 299.027 80.9263C298.286 81.6667 297.87 82.6709 297.87 83.7179C297.87 84.765 298.286 85.7692 299.027 86.5095C299.767 87.2499 300.771 87.6659 301.818 87.6659H342.995C344.042 87.6659 345.046 87.2499 345.787 86.5095C346.527 85.7692 346.943 84.765 346.943 83.7179C346.943 82.6709 346.527 81.6667 345.787 80.9263C345.046 80.186 344.042 79.77 342.995 79.77Z" fill="white"/>
<path d="M342.995 94.5747H301.818C300.771 94.5747 299.767 94.9906 299.027 95.731C298.286 96.4714 297.87 97.4756 297.87 98.5226C297.87 99.5697 298.286 100.574 299.027 101.314C299.767 102.055 300.771 102.471 301.818 102.471H342.995C344.042 102.471 345.046 102.055 345.787 101.314C346.527 100.574 346.943 99.5697 346.943 98.5226C346.943 97.4756 346.527 96.4714 345.787 95.731C345.046 94.9906 344.042 94.5747 342.995 94.5747Z" fill="white"/>
<path d="M342.995 109.379H301.818C300.771 109.379 299.767 109.795 299.027 110.536C298.286 111.276 297.87 112.28 297.87 113.327C297.87 114.374 298.286 115.379 299.027 116.119C299.767 116.859 300.771 117.275 301.818 117.275H342.995C344.042 117.275 345.046 116.859 345.787 116.119C346.527 115.379 346.943 114.374 346.943 113.327C346.943 112.28 346.527 111.276 345.787 110.536C345.046 109.795 344.042 109.379 342.995 109.379Z" fill="white"/>
<path d="M342.995 124.184H301.818C300.771 124.184 299.767 124.6 299.027 125.34C298.286 126.081 297.87 127.085 297.87 128.132C297.87 129.179 298.286 130.183 299.027 130.924C299.767 131.664 300.771 132.08 301.818 132.08H342.995C344.042 132.08 345.046 131.664 345.787 130.924C346.527 130.183 346.943 129.179 346.943 128.132C346.943 127.085 346.527 126.081 345.787 125.34C345.046 124.6 344.042 124.184 342.995 124.184Z" fill="white"/>
<path d="M322.387 138.989H301.818C300.771 138.989 299.767 139.405 299.027 140.145C298.286 140.885 297.87 141.89 297.87 142.937C297.87 143.984 298.286 144.988 299.027 145.728C299.767 146.469 300.771 146.885 301.818 146.885H322.387C323.434 146.885 324.438 146.469 325.178 145.728C325.919 144.988 326.335 143.984 326.335 142.937C326.335 141.89 325.919 140.885 325.178 140.145C324.438 139.405 323.434 138.989 322.387 138.989Z" fill="white"/>
</svg>
