<svg width="1571" height="1199" viewBox="0 0 1571 1199" fill="none" xmlns="http://www.w3.org/2000/svg">
<ellipse cx="965.524" cy="599.159" rx="452.68" ry="440.116" transform="rotate(27.4271 965.524 599.159)" fill="#E36060"/>
<ellipse cx="360.682" cy="623.606" rx="270.086" ry="262.59" transform="rotate(27.4271 360.682 623.606)" fill="#FDF471"/>
<path d="M253.129 852.475C227.612 901.644 165.799 920.402 114.948 894.013C64.0966 867.624 43.8511 806.281 69.3676 757.112C94.8842 707.942 156.698 689.185 207.549 715.574C258.4 741.963 278.646 803.306 253.129 852.475Z" stroke="white" stroke-width="9"/>
<path d="M221.557 328.614C213.289 344.546 193.24 350.651 176.72 342.078C160.2 333.505 153.65 313.596 161.918 297.664C170.186 281.732 190.235 275.627 206.755 284.2C223.275 292.773 229.825 312.682 221.557 328.614Z" fill="white" stroke="white" stroke-width="4.30222"/>
<path d="M1292.45 205.578C1287.54 215.051 1275.62 218.681 1265.79 213.583C1255.97 208.486 1252.08 196.648 1256.99 187.175C1261.91 177.702 1273.83 174.072 1283.65 179.17C1293.48 184.267 1297.37 196.105 1292.45 205.578Z" fill="white" stroke="white" stroke-width="2.55806"/>
<path d="M612.22 1070.98C608.808 1077.26 600.783 1079.54 594.276 1076C587.768 1072.46 585.315 1064.49 588.727 1058.21C592.14 1051.93 600.164 1049.66 606.672 1053.2C613.18 1056.74 615.633 1064.71 612.22 1070.98Z" fill="white" stroke="white" stroke-width="1.71222"/>
<path d="M1275.91 1006.12C1259.26 1038.21 1218.97 1050.39 1185.87 1033.22C1152.78 1016.04 1139.55 976.085 1156.2 944.002C1172.85 911.919 1213.14 899.735 1246.23 916.908C1279.32 934.081 1292.56 974.041 1275.91 1006.12Z" stroke="white" stroke-width="3"/>
<ellipse cx="476.583" cy="864.3" rx="177.907" ry="172.969" transform="rotate(27.4271 476.583 864.3)" fill="#66BFE8"/>
<path d="M769.81 478.678H783.669L791.916 506.057L801.043 478.543H812.332L821.459 506.057L829.706 478.678H843.294L827.475 526.338H816.05L806.519 499.094L797.054 526.338H785.629L769.81 478.678ZM862.844 518.767C864.737 518.767 866.269 518.226 867.441 517.144C868.613 516.062 869.198 514.598 869.198 512.75V511.06C868.568 510.789 867.801 510.564 866.9 510.384C866.044 510.204 865.142 510.113 864.196 510.113C862.303 510.113 860.838 510.542 859.802 511.398C858.81 512.209 858.315 513.291 858.315 514.643V514.778C858.315 516.04 858.743 517.031 859.599 517.753C860.455 518.429 861.537 518.767 862.844 518.767ZM858.247 526.811C856.489 526.811 854.867 526.563 853.38 526.068C851.892 525.572 850.585 524.851 849.459 523.904C848.377 522.958 847.521 521.786 846.89 520.389C846.259 518.992 845.943 517.369 845.943 515.522V515.386C845.943 513.494 846.281 511.826 846.957 510.384C847.678 508.942 848.647 507.747 849.864 506.801C851.126 505.855 852.636 505.133 854.394 504.638C856.151 504.142 858.112 503.894 860.275 503.894C861.988 503.894 863.61 504.052 865.142 504.367C866.72 504.638 868.027 504.953 869.063 505.314V504.705C869.063 502.812 868.455 501.348 867.238 500.311C866.066 499.275 864.241 498.756 861.762 498.756C859.824 498.756 858.067 498.937 856.489 499.297C854.912 499.658 853.312 500.153 851.69 500.784L849.053 491.726C851.126 490.869 853.312 490.193 855.61 489.698C857.954 489.157 860.703 488.886 863.858 488.886C867.148 488.886 869.92 489.269 872.173 490.036C874.471 490.802 876.342 491.906 877.784 493.348C879.181 494.7 880.173 496.345 880.758 498.283C881.389 500.176 881.705 502.407 881.705 504.976V526H868.996V522.214C867.734 523.611 866.224 524.738 864.466 525.594C862.754 526.406 860.681 526.811 858.247 526.811ZM888.238 489.427H901.082V494.565C901.668 493.799 902.321 493.055 903.042 492.334C903.763 491.613 904.575 490.982 905.476 490.441C906.377 489.9 907.369 489.472 908.451 489.157C909.532 488.796 910.727 488.616 912.034 488.616C915.954 488.616 918.997 489.81 921.16 492.199C923.368 494.587 924.472 497.877 924.472 502.069V526H911.628V506.193C911.628 504.164 911.155 502.632 910.208 501.596C909.262 500.559 908.022 500.041 906.49 500.041C904.913 500.041 903.606 500.559 902.569 501.596C901.578 502.632 901.082 504.164 901.082 506.193V526H888.238V489.427ZM945.618 526.744C941.742 526.744 938.722 525.82 936.559 523.972C934.396 522.124 933.314 519.014 933.314 514.643V499.77H928.987V489.427H933.314V480.166H946.158V489.427H954.676V499.77H946.158V512.142C946.158 513.449 946.451 514.395 947.037 514.981C947.623 515.522 948.502 515.792 949.674 515.792C950.53 515.792 951.364 515.679 952.175 515.454C952.986 515.229 953.775 514.936 954.541 514.575V524.648C953.369 525.279 952.04 525.775 950.553 526.135C949.065 526.541 947.42 526.744 945.618 526.744ZM993.48 526.744C989.605 526.744 986.585 525.82 984.422 523.972C982.259 522.124 981.177 519.014 981.177 514.643V499.77H976.85V489.427H981.177V480.166H994.021V489.427H1002.54V499.77H994.021V512.142C994.021 513.449 994.314 514.395 994.9 514.981C995.486 515.522 996.365 515.792 997.537 515.792C998.393 515.792 999.227 515.679 1000.04 515.454C1000.85 515.229 1001.64 514.936 1002.4 514.575V524.648C1001.23 525.279 999.903 525.775 998.415 526.135C996.928 526.541 995.283 526.744 993.48 526.744ZM1026.85 515.995C1028.03 515.995 1029.08 515.792 1030.03 515.386C1030.98 514.936 1031.77 514.35 1032.4 513.629C1033.07 512.863 1033.59 511.984 1033.95 510.992C1034.31 510.001 1034.49 508.964 1034.49 507.883V507.747C1034.49 506.621 1034.29 505.562 1033.88 504.57C1033.52 503.579 1032.98 502.722 1032.26 502.001C1031.59 501.235 1030.77 500.627 1029.83 500.176C1028.88 499.725 1027.84 499.5 1026.72 499.5C1025.55 499.5 1024.49 499.725 1023.54 500.176C1022.59 500.582 1021.78 501.167 1021.11 501.934C1020.48 502.655 1019.98 503.511 1019.62 504.502C1019.26 505.494 1019.08 506.531 1019.08 507.612V507.747C1019.08 508.874 1019.26 509.933 1019.62 510.925C1020.03 511.916 1020.57 512.795 1021.24 513.561C1021.96 514.282 1022.8 514.868 1023.74 515.319C1024.69 515.77 1025.73 515.995 1026.85 515.995ZM1026.72 526.879C1023.79 526.879 1021.08 526.383 1018.61 525.392C1016.17 524.4 1014.05 523.048 1012.25 521.335C1010.45 519.578 1009.05 517.55 1008.06 515.251C1007.07 512.953 1006.57 510.497 1006.57 507.883V507.747C1006.57 505.133 1007.07 502.677 1008.06 500.379C1009.1 498.035 1010.52 496.007 1012.32 494.295C1014.12 492.537 1016.26 491.162 1018.74 490.171C1021.22 489.134 1023.92 488.616 1026.85 488.616C1029.78 488.616 1032.46 489.134 1034.9 490.171C1037.38 491.162 1039.52 492.514 1041.32 494.227C1043.12 495.94 1044.52 497.945 1045.51 500.244C1046.5 502.542 1047 504.998 1047 507.612V507.747C1047 510.361 1046.48 512.84 1045.44 515.184C1044.45 517.482 1043.06 519.51 1041.25 521.268C1039.45 522.98 1037.31 524.355 1034.83 525.392C1032.35 526.383 1029.65 526.879 1026.72 526.879ZM1089.9 512.885C1092.06 512.885 1093.84 512.209 1095.24 510.857C1096.64 509.505 1097.34 507.815 1097.34 505.787V505.652C1097.34 503.624 1096.64 501.956 1095.24 500.649C1093.84 499.297 1092.06 498.621 1089.9 498.621C1087.69 498.621 1085.89 499.297 1084.49 500.649C1083.09 502.001 1082.39 503.691 1082.39 505.719V505.855C1082.39 507.883 1083.09 509.573 1084.49 510.925C1085.89 512.232 1087.69 512.885 1089.9 512.885ZM1089.16 536.952C1085.59 536.952 1082.3 536.591 1079.29 535.87C1076.31 535.149 1073.49 534.112 1070.83 532.76L1074.96 524.242C1076.94 525.324 1078.95 526.158 1080.98 526.744C1083 527.375 1085.26 527.69 1087.74 527.69C1090.98 527.69 1093.39 526.924 1094.97 525.392C1096.55 523.859 1097.34 521.628 1097.34 518.699V517.279C1096.03 518.767 1094.5 520.051 1092.74 521.133C1090.98 522.214 1088.75 522.755 1086.05 522.755C1083.79 522.755 1081.67 522.372 1079.69 521.606C1077.75 520.795 1076.04 519.668 1074.55 518.226C1073.11 516.738 1071.96 514.958 1071.11 512.885C1070.25 510.767 1069.82 508.401 1069.82 505.787V505.652C1069.82 503.038 1070.25 500.672 1071.11 498.553C1071.96 496.435 1073.11 494.655 1074.55 493.213C1076 491.726 1077.66 490.599 1079.56 489.833C1081.49 489.022 1083.52 488.616 1085.64 488.616C1088.39 488.616 1090.64 489.112 1092.4 490.103C1094.16 491.095 1095.74 492.312 1097.13 493.754V489.427H1109.98V517.212C1109.98 520.592 1109.59 523.476 1108.83 525.865C1108.06 528.208 1106.87 530.191 1105.24 531.814C1103.58 533.481 1101.44 534.743 1098.82 535.6C1096.21 536.501 1092.99 536.952 1089.16 536.952ZM1140.25 504.705C1140.02 502.677 1139.35 501.077 1138.22 499.906C1137.09 498.689 1135.65 498.08 1133.89 498.08C1132.18 498.08 1130.78 498.689 1129.7 499.906C1128.62 501.077 1127.9 502.677 1127.54 504.705H1140.25ZM1134.97 526.879C1132.09 526.879 1129.45 526.428 1127.07 525.527C1124.68 524.58 1122.6 523.296 1120.85 521.673C1119.13 520.006 1117.78 518 1116.79 515.657C1115.84 513.313 1115.37 510.722 1115.37 507.883V507.747C1115.37 505.088 1115.82 502.61 1116.72 500.311C1117.62 497.968 1118.89 495.94 1120.51 494.227C1122.18 492.469 1124.14 491.095 1126.39 490.103C1128.64 489.112 1131.12 488.616 1133.83 488.616C1136.98 488.616 1139.71 489.157 1142.01 490.238C1144.35 491.32 1146.26 492.785 1147.75 494.633C1149.28 496.435 1150.41 498.553 1151.13 500.987C1151.9 503.376 1152.28 505.922 1152.28 508.626C1152.28 509.032 1152.28 509.46 1152.28 509.911C1152.28 510.361 1152.26 510.812 1152.21 511.263H1127.74C1128.24 513.291 1129.16 514.801 1130.51 515.792C1131.91 516.784 1133.62 517.279 1135.65 517.279C1137.18 517.279 1138.58 516.986 1139.84 516.4C1141.15 515.815 1142.46 514.868 1143.76 513.561L1150.86 519.443C1149.1 521.696 1146.92 523.499 1144.3 524.851C1141.73 526.203 1138.63 526.879 1134.97 526.879ZM1172.32 526.744C1168.45 526.744 1165.43 525.82 1163.26 523.972C1161.1 522.124 1160.02 519.014 1160.02 514.643V499.77H1155.69V489.427H1160.02V480.166H1172.86V489.427H1181.38V499.77H1172.86V512.142C1172.86 513.449 1173.16 514.395 1173.74 514.981C1174.33 515.522 1175.21 515.792 1176.38 515.792C1177.24 515.792 1178.07 515.679 1178.88 515.454C1179.69 515.229 1180.48 514.936 1181.25 514.575V524.648C1180.07 525.279 1178.75 525.775 1177.26 526.135C1175.77 526.541 1174.13 526.744 1172.32 526.744ZM672.997 591.744C669.121 591.744 666.101 590.82 663.938 588.972C661.775 587.124 660.693 584.014 660.693 579.643V564.77H656.367V554.427H660.693V545.166H673.538V554.427H682.056V564.77H673.538V577.142C673.538 578.449 673.831 579.395 674.417 579.981C675.002 580.522 675.881 580.792 677.053 580.792C677.909 580.792 678.743 580.679 679.554 580.454C680.366 580.229 681.154 579.936 681.92 579.575V589.648C680.749 590.279 679.419 590.775 677.932 591.135C676.445 591.541 674.8 591.744 672.997 591.744ZM687.576 541.65H700.421V559.43C701.592 557.897 703.057 556.545 704.815 555.374C706.573 554.202 708.758 553.616 711.372 553.616C715.293 553.616 718.335 554.81 720.499 557.199C722.707 559.587 723.811 562.877 723.811 567.069V591H710.967V571.193C710.967 569.164 710.493 567.632 709.547 566.596C708.601 565.559 707.361 565.041 705.829 565.041C704.252 565.041 702.945 565.559 701.908 566.596C700.916 567.632 700.421 569.164 700.421 571.193V591H687.576V541.65ZM753.812 569.705C753.587 567.677 752.911 566.077 751.784 564.906C750.657 563.689 749.215 563.08 747.458 563.08C745.745 563.08 744.348 563.689 743.266 564.906C742.185 566.077 741.464 567.677 741.103 569.705H753.812ZM748.539 591.879C745.655 591.879 743.018 591.428 740.63 590.527C738.241 589.58 736.168 588.296 734.41 586.673C732.698 585.006 731.346 583 730.354 580.657C729.408 578.313 728.935 575.722 728.935 572.883V572.747C728.935 570.088 729.385 567.61 730.287 565.311C731.188 562.968 732.45 560.94 734.072 559.227C735.74 557.469 737.7 556.095 739.954 555.103C742.207 554.112 744.686 553.616 747.39 553.616C750.545 553.616 753.271 554.157 755.57 555.238C757.913 556.32 759.829 557.785 761.316 559.633C762.848 561.435 763.975 563.553 764.696 565.987C765.462 568.376 765.845 570.922 765.845 573.626C765.845 574.032 765.845 574.46 765.845 574.911C765.845 575.361 765.823 575.812 765.778 576.263H741.306C741.802 578.291 742.725 579.801 744.078 580.792C745.475 581.784 747.187 582.279 749.215 582.279C750.748 582.279 752.145 581.986 753.407 581.4C754.714 580.815 756.021 579.868 757.328 578.561L764.426 584.443C762.668 586.696 760.482 588.499 757.868 589.851C755.3 591.203 752.19 591.879 748.539 591.879ZM790.372 541.65H803.217V591H790.372V541.65ZM825.445 583.767C827.338 583.767 828.87 583.226 830.042 582.144C831.214 581.062 831.799 579.598 831.799 577.75V576.06C831.168 575.789 830.402 575.564 829.501 575.384C828.645 575.204 827.743 575.113 826.797 575.113C824.904 575.113 823.439 575.542 822.403 576.398C821.411 577.209 820.915 578.291 820.915 579.643V579.778C820.915 581.04 821.344 582.031 822.2 582.753C823.056 583.429 824.138 583.767 825.445 583.767ZM820.848 591.811C819.09 591.811 817.468 591.563 815.98 591.068C814.493 590.572 813.186 589.851 812.06 588.904C810.978 587.958 810.122 586.786 809.491 585.389C808.86 583.992 808.544 582.369 808.544 580.522V580.386C808.544 578.494 808.882 576.826 809.558 575.384C810.279 573.942 811.248 572.747 812.465 571.801C813.727 570.855 815.237 570.133 816.994 569.638C818.752 569.142 820.713 568.894 822.876 568.894C824.588 568.894 826.211 569.052 827.743 569.367C829.321 569.638 830.628 569.953 831.664 570.314V569.705C831.664 567.812 831.056 566.348 829.839 565.311C828.667 564.275 826.842 563.756 824.363 563.756C822.425 563.756 820.668 563.937 819.09 564.297C817.513 564.658 815.913 565.153 814.29 565.784L811.654 556.726C813.727 555.869 815.913 555.193 818.211 554.698C820.555 554.157 823.304 553.886 826.459 553.886C829.749 553.886 832.52 554.269 834.774 555.036C837.072 555.802 838.943 556.906 840.385 558.348C841.782 559.7 842.773 561.345 843.359 563.283C843.99 565.176 844.306 567.407 844.306 569.976V591H831.597V587.214C830.335 588.611 828.825 589.738 827.067 590.594C825.355 591.406 823.282 591.811 820.848 591.811ZM865.373 591.744C861.497 591.744 858.477 590.82 856.314 588.972C854.151 587.124 853.069 584.014 853.069 579.643V564.77H848.743V554.427H853.069V545.166H865.914V554.427H874.432V564.77H865.914V577.142C865.914 578.449 866.207 579.395 866.793 579.981C867.378 580.522 868.257 580.792 869.429 580.792C870.285 580.792 871.119 580.679 871.93 580.454C872.742 580.229 873.53 579.936 874.296 579.575V589.648C873.125 590.279 871.795 590.775 870.308 591.135C868.821 591.541 867.176 591.744 865.373 591.744ZM903.343 569.705C903.117 567.677 902.441 566.077 901.315 564.906C900.188 563.689 898.746 563.08 896.988 563.08C895.275 563.08 893.878 563.689 892.797 564.906C891.715 566.077 890.994 567.677 890.633 569.705H903.343ZM898.07 591.879C895.185 591.879 892.549 591.428 890.16 590.527C887.772 589.58 885.698 588.296 883.941 586.673C882.228 585.006 880.876 583 879.885 580.657C878.938 578.313 878.465 575.722 878.465 572.883V572.747C878.465 570.088 878.916 567.61 879.817 565.311C880.718 562.968 881.98 560.94 883.603 559.227C885.27 557.469 887.231 556.095 889.484 555.103C891.738 554.112 894.216 553.616 896.92 553.616C900.075 553.616 902.802 554.157 905.1 555.238C907.444 556.32 909.359 557.785 910.846 559.633C912.379 561.435 913.506 563.553 914.227 565.987C914.993 568.376 915.376 570.922 915.376 573.626C915.376 574.032 915.376 574.46 915.376 574.911C915.376 575.361 915.353 575.812 915.308 576.263H890.836C891.332 578.291 892.256 579.801 893.608 580.792C895.005 581.784 896.718 582.279 898.746 582.279C900.278 582.279 901.675 581.986 902.937 581.4C904.244 580.815 905.551 579.868 906.858 578.561L913.956 584.443C912.199 586.696 910.013 588.499 907.399 589.851C904.83 591.203 901.72 591.879 898.07 591.879ZM935.418 591.811C932.308 591.811 929.289 591.383 926.359 590.527C923.43 589.625 920.681 588.251 918.112 586.403L922.911 578.629C925.03 580.026 927.17 581.085 929.334 581.806C931.542 582.482 933.593 582.82 935.485 582.82C937.649 582.82 938.73 582.167 938.73 580.86V580.724C938.73 580.003 938.235 579.44 937.243 579.034C936.252 578.629 934.787 578.156 932.849 577.615C931.046 577.164 929.356 576.646 927.779 576.06C926.201 575.429 924.827 574.685 923.655 573.829C922.483 572.928 921.559 571.846 920.883 570.584C920.207 569.322 919.869 567.767 919.869 565.92V565.784C919.869 563.846 920.23 562.134 920.951 560.647C921.717 559.114 922.754 557.852 924.061 556.861C925.368 555.824 926.9 555.036 928.658 554.495C930.46 553.954 932.421 553.684 934.539 553.684C937.243 553.684 939.902 554.067 942.516 554.833C945.13 555.554 947.496 556.59 949.614 557.942L945.22 566.055C943.327 565.018 941.412 564.207 939.474 563.621C937.536 562.99 935.846 562.675 934.404 562.675C933.412 562.675 932.669 562.855 932.173 563.215C931.677 563.531 931.429 563.937 931.429 564.432V564.568C931.429 565.289 931.925 565.874 932.917 566.325C933.953 566.731 935.44 567.227 937.378 567.812C939.181 568.308 940.871 568.872 942.448 569.502C944.026 570.088 945.4 570.832 946.572 571.733C947.744 572.59 948.668 573.649 949.344 574.911C950.02 576.173 950.358 577.682 950.358 579.44V579.575C950.358 581.603 949.997 583.383 949.276 584.916C948.555 586.403 947.541 587.665 946.234 588.702C944.927 589.738 943.35 590.504 941.502 591C939.654 591.541 937.626 591.811 935.418 591.811ZM970.143 591.744C966.267 591.744 963.248 590.82 961.084 588.972C958.921 587.124 957.84 584.014 957.84 579.643V564.77H953.513V554.427H957.84V545.166H970.684V554.427H979.202V564.77H970.684V577.142C970.684 578.449 970.977 579.395 971.563 579.981C972.149 580.522 973.028 580.792 974.199 580.792C975.056 580.792 975.889 580.679 976.701 580.454C977.512 580.229 978.301 579.936 979.067 579.575V589.648C977.895 590.279 976.565 590.775 975.078 591.135C973.591 591.541 971.946 591.744 970.143 591.744ZM1015.64 591.811C1011.72 591.811 1008.65 590.617 1006.45 588.228C1004.28 585.84 1003.2 582.55 1003.2 578.358V554.427H1016.05V574.235C1016.05 576.263 1016.52 577.795 1017.47 578.832C1018.41 579.868 1019.67 580.386 1021.25 580.386C1022.78 580.386 1024.05 579.868 1025.04 578.832C1026.07 577.795 1026.59 576.263 1026.59 574.235V554.427H1039.44V591H1026.59V585.997C1025.42 587.53 1023.96 588.882 1022.2 590.054C1020.44 591.225 1018.25 591.811 1015.64 591.811ZM1066.33 581.062C1068.45 581.062 1070.23 580.296 1071.67 578.764C1073.11 577.232 1073.83 575.226 1073.83 572.747V572.612C1073.83 570.179 1073.11 568.196 1071.67 566.663C1070.23 565.131 1068.45 564.365 1066.33 564.365C1065.29 564.365 1064.32 564.568 1063.42 564.973C1062.52 565.379 1061.73 565.965 1061.05 566.731C1060.38 567.452 1059.84 568.308 1059.43 569.3C1059.07 570.291 1058.89 571.395 1058.89 572.612V572.747C1058.89 573.964 1059.07 575.091 1059.43 576.128C1059.84 577.119 1060.38 577.998 1061.05 578.764C1061.73 579.485 1062.52 580.048 1063.42 580.454C1064.32 580.86 1065.29 581.062 1066.33 581.062ZM1046.32 554.427H1059.16V559.295C1059.79 558.528 1060.47 557.807 1061.19 557.131C1061.91 556.455 1062.7 555.869 1063.56 555.374C1064.46 554.833 1065.45 554.405 1066.53 554.089C1067.66 553.774 1068.9 553.616 1070.25 553.616C1072.41 553.616 1074.46 554.067 1076.4 554.968C1078.38 555.824 1080.12 557.064 1081.61 558.686C1083.09 560.309 1084.26 562.292 1085.12 564.635C1086.02 566.979 1086.47 569.615 1086.47 572.545V572.68C1086.47 575.654 1086.02 578.336 1085.12 580.724C1084.26 583.068 1083.09 585.074 1081.61 586.741C1080.16 588.364 1078.45 589.625 1076.47 590.527C1074.53 591.383 1072.48 591.811 1070.32 591.811C1068.92 591.811 1067.66 591.653 1066.53 591.338C1065.45 591.068 1064.46 590.707 1063.56 590.256C1062.65 589.761 1061.84 589.197 1061.12 588.566C1060.4 587.89 1059.75 587.214 1059.16 586.538V601.816H1046.32V554.427ZM1110.73 581.062C1111.76 581.062 1112.73 580.86 1113.63 580.454C1114.54 580.048 1115.32 579.485 1116 578.764C1116.68 577.998 1117.19 577.119 1117.56 576.128C1117.96 575.091 1118.16 573.964 1118.16 572.747V572.612C1118.16 571.395 1117.96 570.291 1117.56 569.3C1117.19 568.308 1116.68 567.452 1116 566.731C1115.32 565.965 1114.54 565.379 1113.63 564.973C1112.73 564.568 1111.76 564.365 1110.73 564.365C1109.69 564.365 1108.72 564.568 1107.82 564.973C1106.92 565.379 1106.13 565.942 1105.45 566.663C1104.78 567.384 1104.24 568.263 1103.83 569.3C1103.43 570.291 1103.22 571.395 1103.22 572.612V572.747C1103.22 573.964 1103.43 575.091 1103.83 576.128C1104.24 577.119 1104.78 577.998 1105.45 578.764C1106.13 579.485 1106.92 580.048 1107.82 580.454C1108.72 580.86 1109.69 581.062 1110.73 581.062ZM1106.81 591.811C1104.64 591.811 1102.57 591.383 1100.59 590.527C1098.65 589.625 1096.94 588.364 1095.45 586.741C1094.01 585.119 1092.84 583.136 1091.93 580.792C1091.08 578.449 1090.65 575.812 1090.65 572.883V572.747C1090.65 569.773 1091.08 567.114 1091.93 564.77C1092.79 562.382 1093.96 560.376 1095.45 558.754C1096.94 557.086 1098.65 555.824 1100.59 554.968C1102.52 554.067 1104.58 553.616 1106.74 553.616C1109.49 553.616 1111.74 554.157 1113.5 555.238C1115.26 556.275 1116.74 557.492 1117.96 558.889V541.65H1130.81V591H1117.96V586.133C1116.7 587.665 1115.21 588.994 1113.5 590.121C1111.79 591.248 1109.56 591.811 1106.81 591.811ZM1152.76 583.767C1154.65 583.767 1156.19 583.226 1157.36 582.144C1158.53 581.062 1159.12 579.598 1159.12 577.75V576.06C1158.48 575.789 1157.72 575.564 1156.82 575.384C1155.96 575.204 1155.06 575.113 1154.11 575.113C1152.22 575.113 1150.76 575.542 1149.72 576.398C1148.73 577.209 1148.23 578.291 1148.23 579.643V579.778C1148.23 581.04 1148.66 582.031 1149.52 582.753C1150.37 583.429 1151.45 583.767 1152.76 583.767ZM1148.16 591.811C1146.41 591.811 1144.78 591.563 1143.3 591.068C1141.81 590.572 1140.5 589.851 1139.38 588.904C1138.29 587.958 1137.44 586.786 1136.81 585.389C1136.18 583.992 1135.86 582.369 1135.86 580.522V580.386C1135.86 578.494 1136.2 576.826 1136.87 575.384C1137.6 573.942 1138.56 572.747 1139.78 571.801C1141.04 570.855 1142.55 570.133 1144.31 569.638C1146.07 569.142 1148.03 568.894 1150.19 568.894C1151.9 568.894 1153.53 569.052 1155.06 569.367C1156.64 569.638 1157.94 569.953 1158.98 570.314V569.705C1158.98 567.812 1158.37 566.348 1157.16 565.311C1155.98 564.275 1154.16 563.756 1151.68 563.756C1149.74 563.756 1147.98 563.937 1146.41 564.297C1144.83 564.658 1143.23 565.153 1141.61 565.784L1138.97 556.726C1141.04 555.869 1143.23 555.193 1145.53 554.698C1147.87 554.157 1150.62 553.886 1153.78 553.886C1157.07 553.886 1159.84 554.269 1162.09 555.036C1164.39 555.802 1166.26 556.906 1167.7 558.348C1169.1 559.7 1170.09 561.345 1170.68 563.283C1171.31 565.176 1171.62 567.407 1171.62 569.976V591H1158.91V587.214C1157.65 588.611 1156.14 589.738 1154.38 590.594C1152.67 591.406 1150.6 591.811 1148.16 591.811ZM1192.69 591.744C1188.81 591.744 1185.79 590.82 1183.63 588.972C1181.47 587.124 1180.39 584.014 1180.39 579.643V564.77H1176.06V554.427H1180.39V545.166H1193.23V554.427H1201.75V564.77H1193.23V577.142C1193.23 578.449 1193.52 579.395 1194.11 579.981C1194.69 580.522 1195.57 580.792 1196.75 580.792C1197.6 580.792 1198.44 580.679 1199.25 580.454C1200.06 580.229 1200.85 579.936 1201.61 579.575V589.648C1200.44 590.279 1199.11 590.775 1197.62 591.135C1196.14 591.541 1194.49 591.744 1192.69 591.744ZM1230.66 569.705C1230.43 567.677 1229.76 566.077 1228.63 564.906C1227.5 563.689 1226.06 563.08 1224.3 563.08C1222.59 563.08 1221.19 563.689 1220.11 564.906C1219.03 566.077 1218.31 567.677 1217.95 569.705H1230.66ZM1225.39 591.879C1222.5 591.879 1219.87 591.428 1217.48 590.527C1215.09 589.58 1213.01 588.296 1211.26 586.673C1209.54 585.006 1208.19 583 1207.2 580.657C1206.25 578.313 1205.78 575.722 1205.78 572.883V572.747C1205.78 570.088 1206.23 567.61 1207.13 565.311C1208.03 562.968 1209.3 560.94 1210.92 559.227C1212.59 557.469 1214.55 556.095 1216.8 555.103C1219.05 554.112 1221.53 553.616 1224.24 553.616C1227.39 553.616 1230.12 554.157 1232.42 555.238C1234.76 556.32 1236.68 557.785 1238.16 559.633C1239.7 561.435 1240.82 563.553 1241.54 565.987C1242.31 568.376 1242.69 570.922 1242.69 573.626C1242.69 574.032 1242.69 574.46 1242.69 574.911C1242.69 575.361 1242.67 575.812 1242.62 576.263H1218.15C1218.65 578.291 1219.57 579.801 1220.92 580.792C1222.32 581.784 1224.03 582.279 1226.06 582.279C1227.59 582.279 1228.99 581.986 1230.25 581.4C1231.56 580.815 1232.87 579.868 1234.17 578.561L1241.27 584.443C1239.51 586.696 1237.33 588.499 1234.72 589.851C1232.15 591.203 1229.04 591.879 1225.39 591.879ZM1262.73 591.811C1259.62 591.811 1256.6 591.383 1253.68 590.527C1250.75 589.625 1248 588.251 1245.43 586.403L1250.23 578.629C1252.35 580.026 1254.49 581.085 1256.65 581.806C1258.86 582.482 1260.91 582.82 1262.8 582.82C1264.97 582.82 1266.05 582.167 1266.05 580.86V580.724C1266.05 580.003 1265.55 579.44 1264.56 579.034C1263.57 578.629 1262.1 578.156 1260.17 577.615C1258.36 577.164 1256.67 576.646 1255.1 576.06C1253.52 575.429 1252.14 574.685 1250.97 573.829C1249.8 572.928 1248.88 571.846 1248.2 570.584C1247.52 569.322 1247.19 567.767 1247.19 565.92V565.784C1247.19 563.846 1247.55 562.134 1248.27 560.647C1249.03 559.114 1250.07 557.852 1251.38 556.861C1252.68 555.824 1254.22 555.036 1255.97 554.495C1257.78 553.954 1259.74 553.684 1261.86 553.684C1264.56 553.684 1267.22 554.067 1269.83 554.833C1272.45 555.554 1274.81 556.59 1276.93 557.942L1272.54 566.055C1270.64 565.018 1268.73 564.207 1266.79 563.621C1264.85 562.99 1263.16 562.675 1261.72 562.675C1260.73 562.675 1259.99 562.855 1259.49 563.215C1258.99 563.531 1258.75 563.937 1258.75 564.432V564.568C1258.75 565.289 1259.24 565.874 1260.23 566.325C1261.27 566.731 1262.76 567.227 1264.69 567.812C1266.5 568.308 1268.19 568.872 1269.76 569.502C1271.34 570.088 1272.72 570.832 1273.89 571.733C1275.06 572.59 1275.98 573.649 1276.66 574.911C1277.34 576.173 1277.67 577.682 1277.67 579.44V579.575C1277.67 581.603 1277.31 583.383 1276.59 584.916C1275.87 586.403 1274.86 587.665 1273.55 588.702C1272.24 589.738 1270.67 590.504 1268.82 591C1266.97 591.541 1264.94 591.811 1262.73 591.811ZM1289.62 579.508H1302.94V591H1289.62V579.508ZM1290.7 564.297L1291.24 563.689C1295.16 563.373 1297.91 562.765 1299.49 561.863C1301.07 560.917 1301.85 559.723 1301.85 558.281V558.213C1301.85 557.041 1301.4 556.14 1300.5 555.509C1299.65 554.833 1298.41 554.495 1296.78 554.495C1295.21 554.495 1293.56 554.878 1291.85 555.644C1290.14 556.41 1288.49 557.514 1286.91 558.957L1280.15 550.033C1282.23 547.96 1284.68 546.27 1287.52 544.963C1290.36 543.611 1293.74 542.935 1297.66 542.935C1300.14 542.935 1302.42 543.273 1304.49 543.949C1306.56 544.58 1308.34 545.504 1309.83 546.721C1311.32 547.937 1312.47 549.425 1313.28 551.182C1314.13 552.94 1314.56 554.923 1314.56 557.131V557.266C1314.56 559.385 1314.22 561.232 1313.55 562.81C1312.87 564.342 1311.95 565.672 1310.78 566.798C1309.61 567.88 1308.21 568.781 1306.59 569.502C1305.01 570.224 1303.27 570.809 1301.38 571.26L1300.57 575.587H1292.39L1290.7 564.297Z" fill="white"/>
<rect x="721" y="704.825" width="489" height="84" rx="29" fill="#E9E9E9" fill-opacity="0.51"/>
<path d="M746.163 735.811H759.042V738.183H748.751V744.9H758.303V747.211H748.751V754.453H759.351V756.825H746.163V735.811ZM763.093 744.13C763.093 743.432 763.031 742.59 762.908 741.603L765.219 741.295L765.558 743.237C766.113 742.826 766.657 742.466 767.191 742.158C767.725 741.85 768.3 741.583 768.917 741.357C769.533 741.131 770.159 741.018 770.796 741.018C771.823 741.018 772.635 741.203 773.23 741.573C773.826 741.922 774.268 742.528 774.555 743.391C775.398 742.795 776.271 742.251 777.175 741.758C778.099 741.265 779.054 741.018 780.04 741.018C780.8 741.018 781.447 741.121 781.981 741.326C782.516 741.511 782.947 741.829 783.276 742.281C783.604 742.733 783.84 743.329 783.984 744.069C784.128 744.808 784.2 745.732 784.2 746.842V756.825H781.735V747.119C781.735 746.503 781.725 745.958 781.704 745.486C781.684 744.993 781.612 744.582 781.488 744.253C781.365 743.904 781.16 743.637 780.872 743.452C780.605 743.267 780.215 743.175 779.701 743.175C779.229 743.175 778.777 743.247 778.345 743.391C777.935 743.514 777.503 743.699 777.051 743.945C776.599 744.192 775.901 744.695 774.956 745.455V756.825H772.491V747.119C772.491 746.503 772.481 745.958 772.46 745.486C772.44 744.993 772.368 744.582 772.244 744.253C772.121 743.904 771.916 743.637 771.628 743.452C771.361 743.267 770.971 743.175 770.457 743.175C769.923 743.175 769.369 743.288 768.793 743.514C768.218 743.74 767.674 744.007 767.16 744.315C766.647 744.623 766.113 744.983 765.558 745.394V756.825H763.093V744.13ZM797.177 749.707C796.766 749.728 796.376 749.748 796.006 749.769C795.636 749.79 795.266 749.82 794.897 749.861C794.547 749.882 794.229 749.913 793.942 749.954C792.462 750.139 791.415 750.467 790.799 750.94C790.182 751.392 789.874 752.049 789.874 752.912C789.874 753.631 790.09 754.175 790.521 754.545C790.973 754.894 791.559 755.069 792.278 755.069C793.264 755.069 794.137 754.905 794.897 754.576C795.677 754.227 796.437 753.775 797.177 753.22V749.707ZM797.146 755.377C796.181 755.932 795.277 756.384 794.435 756.733C793.613 757.061 792.719 757.226 791.754 757.226C790.377 757.226 789.278 756.897 788.457 756.24C787.656 755.562 787.255 754.453 787.255 752.912C787.255 752.111 787.46 751.412 787.871 750.817C788.282 750.221 788.816 749.728 789.474 749.338C790.151 748.927 790.912 748.608 791.754 748.382C792.596 748.156 793.459 748.013 794.342 747.951C794.712 747.91 795.195 747.879 795.79 747.859C796.386 747.817 796.848 747.787 797.177 747.766C797.177 747.047 797.156 746.41 797.115 745.856C797.074 745.281 796.951 744.798 796.746 744.407C796.54 743.997 796.232 743.689 795.821 743.483C795.431 743.278 794.866 743.175 794.126 743.175C793.531 743.175 792.955 743.216 792.401 743.298C791.846 743.36 791.353 743.432 790.922 743.514C790.408 743.617 789.936 743.73 789.504 743.853L789.011 741.727C789.525 741.603 790.08 741.491 790.675 741.388C791.189 741.285 791.785 741.203 792.462 741.141C793.14 741.059 793.87 741.018 794.65 741.018C795.698 741.018 796.54 741.172 797.177 741.48C797.834 741.788 798.338 742.209 798.687 742.744C799.056 743.257 799.303 743.853 799.426 744.531C799.57 745.188 799.642 745.887 799.642 746.626V754.021C799.642 754.309 799.642 754.617 799.642 754.946C799.662 755.254 799.683 755.562 799.704 755.87C799.745 756.178 799.786 756.497 799.827 756.825L797.454 757.072L797.146 755.377ZM803.986 741.295L806.451 741.018V756.825H803.986V741.295ZM803.585 736.889C803.585 736.417 803.739 736.026 804.048 735.718C804.376 735.389 804.777 735.225 805.249 735.225C805.742 735.225 806.153 735.389 806.482 735.718C806.831 736.026 807.006 736.417 807.006 736.889C807.006 737.362 806.831 737.762 806.482 738.091C806.153 738.399 805.742 738.553 805.249 738.553C804.777 738.553 804.376 738.399 804.048 738.091C803.739 737.762 803.585 737.362 803.585 736.889ZM810.877 733.746L813.342 733.469V756.825H810.877V733.746Z" fill="#833030"/>
<path d="M769.532 639.707C769.039 639.584 768.526 639.471 767.991 639.368C767.519 639.265 766.975 639.183 766.358 639.122C765.763 639.039 765.136 638.998 764.479 638.998C762.959 638.998 761.87 639.235 761.213 639.707C760.555 640.159 760.227 640.868 760.227 641.833C760.247 642.593 760.524 643.24 761.058 643.774C761.593 644.288 762.26 644.771 763.061 645.223C763.862 645.654 764.736 646.085 765.68 646.517C766.646 646.928 767.529 647.41 768.33 647.965C769.132 648.499 769.799 649.136 770.333 649.875C770.888 650.594 771.165 651.478 771.165 652.525C771.165 653.737 770.898 654.713 770.364 655.453C769.851 656.192 769.193 656.767 768.392 657.178C767.591 657.589 766.708 657.866 765.742 658.01C764.797 658.154 763.893 658.226 763.031 658.226C762.209 658.226 761.459 658.174 760.781 658.072C760.103 657.969 759.518 657.856 759.025 657.733C758.45 657.589 757.926 657.425 757.453 657.24L758.07 654.744C758.542 654.949 759.045 655.124 759.579 655.268C760.052 655.391 760.576 655.504 761.151 655.607C761.747 655.709 762.373 655.761 763.031 655.761C763.832 655.761 764.561 655.709 765.218 655.607C765.896 655.504 766.482 655.34 766.975 655.114C767.468 654.888 767.848 654.59 768.115 654.22C768.402 653.85 768.546 653.398 768.546 652.864C768.526 652.063 768.258 651.416 767.745 650.923C767.252 650.409 766.584 649.927 765.742 649.475C764.92 649.002 764.027 648.55 763.061 648.119C762.116 647.688 761.243 647.195 760.442 646.64C759.641 646.085 758.963 645.428 758.409 644.668C757.874 643.908 757.607 642.963 757.607 641.833C757.607 641.176 757.72 640.529 757.946 639.892C758.172 639.255 758.552 638.69 759.086 638.197C759.641 637.704 760.35 637.304 761.213 636.995C762.096 636.687 763.185 636.533 764.479 636.533C765.218 636.533 765.917 636.574 766.574 636.657C767.252 636.718 767.837 636.79 768.33 636.872C768.906 636.975 769.45 637.088 769.963 637.211L769.532 639.707ZM774.504 642.295L776.969 642.018V657.825H774.504V642.295ZM774.104 637.889C774.104 637.417 774.258 637.026 774.566 636.718C774.895 636.389 775.295 636.225 775.768 636.225C776.261 636.225 776.672 636.389 777 636.718C777.349 637.026 777.524 637.417 777.524 637.889C777.524 638.362 777.349 638.762 777 639.091C776.672 639.399 776.261 639.553 775.768 639.553C775.295 639.553 774.895 639.399 774.566 639.091C774.258 638.762 774.104 638.362 774.104 637.889ZM793.536 659.304C793.536 660.064 793.453 660.804 793.289 661.523C793.125 662.242 792.806 662.879 792.334 663.433C791.882 664.008 791.235 664.46 790.393 664.789C789.571 665.138 788.482 665.313 787.126 665.313C786.264 665.292 785.514 665.241 784.877 665.159C784.24 665.077 783.634 664.953 783.059 664.789C782.484 664.645 781.96 664.471 781.488 664.265L782.135 662.108C782.936 662.457 783.747 662.724 784.569 662.909C785.411 663.094 786.161 663.187 786.818 663.187C787.537 663.187 788.164 663.115 788.698 662.971C789.232 662.827 789.674 662.581 790.023 662.231C790.393 661.903 790.66 661.461 790.824 660.907C791.009 660.352 791.101 659.664 791.101 658.842V656.593C790.67 656.88 790.218 657.147 789.746 657.394C789.294 657.62 788.801 657.815 788.267 657.979C787.753 658.144 787.25 658.226 786.757 658.226C784.846 658.226 783.336 657.558 782.227 656.223C781.118 654.867 780.563 652.854 780.563 650.184C780.563 648.643 780.799 647.359 781.272 646.332C781.765 645.284 782.381 644.442 783.121 643.805C783.86 643.168 784.672 642.716 785.555 642.449C786.438 642.162 787.28 642.018 788.082 642.018C789.129 642.018 790.084 642.11 790.947 642.295C791.831 642.46 792.693 642.593 793.536 642.696V659.304ZM787.034 656.069C787.486 656.069 787.948 655.987 788.421 655.822C788.893 655.658 789.345 655.463 789.776 655.237C790.228 655.011 790.67 654.744 791.101 654.436V644.606C790.855 644.545 790.567 644.473 790.239 644.391C789.951 644.35 789.622 644.308 789.253 644.267C788.883 644.206 788.492 644.175 788.082 644.175C787.219 644.175 786.479 644.329 785.863 644.637C785.247 644.945 784.733 645.366 784.322 645.9C783.932 646.435 783.645 647.061 783.46 647.78C783.275 648.499 783.182 649.259 783.182 650.06C783.182 650.779 783.254 651.498 783.398 652.217C783.562 652.936 783.809 653.583 784.138 654.158C784.466 654.734 784.867 655.196 785.339 655.545C785.812 655.894 786.377 656.069 787.034 656.069ZM798.006 645.407C798.027 644.976 797.975 644.041 797.852 642.603L800.132 642.295L800.471 644.267C801.087 643.857 801.693 643.497 802.289 643.189C802.905 642.881 803.532 642.614 804.169 642.388C804.806 642.141 805.422 642.018 806.018 642.018C806.86 642.018 807.558 642.121 808.113 642.326C808.688 642.511 809.15 642.829 809.499 643.281C809.849 643.733 810.095 644.329 810.239 645.069C810.403 645.808 810.485 646.732 810.485 647.842V657.825H808.02V648.119C808.02 647.503 808.01 646.958 807.99 646.486C807.969 645.993 807.877 645.582 807.712 645.253C807.568 644.904 807.332 644.637 807.004 644.452C806.695 644.267 806.254 644.175 805.679 644.175C805.144 644.175 804.58 644.298 803.984 644.545C803.388 644.771 802.803 645.038 802.228 645.346C801.652 645.654 801.067 646.013 800.471 646.424V657.825H798.006V645.407ZM831.142 656.13H831.081C830.896 656.274 830.629 656.469 830.28 656.716C829.93 656.942 829.53 657.168 829.078 657.394C828.626 657.62 828.123 657.815 827.568 657.979C827.034 658.144 826.49 658.226 825.935 658.226C825.175 658.226 824.528 658.123 823.994 657.918C823.46 657.733 823.028 657.414 822.699 656.962C822.371 656.511 822.135 655.915 821.991 655.175C821.847 654.436 821.775 653.511 821.775 652.402V642.326H824.24V652.032C824.24 652.649 824.25 653.203 824.271 653.696C824.292 654.189 824.363 654.61 824.487 654.96C824.61 655.309 824.805 655.586 825.072 655.792C825.36 655.976 825.76 656.069 826.274 656.069C826.808 656.069 827.363 655.956 827.938 655.73C828.513 655.504 829.037 655.247 829.509 654.96C830.064 654.631 830.608 654.261 831.142 653.85V642.326H833.607V655.822C833.628 656.562 833.679 657.229 833.761 657.825L831.327 658.072L831.142 656.13ZM838.117 645.9C838.117 645.161 838.066 644.062 837.963 642.603L840.244 642.295L840.521 643.959C840.932 643.61 841.353 643.302 841.784 643.035C842.236 642.747 842.719 642.511 843.232 642.326C843.766 642.121 844.331 642.018 844.927 642.018C845.769 642.018 846.56 642.162 847.3 642.449C848.06 642.737 848.717 643.199 849.272 643.836C849.847 644.473 850.299 645.305 850.628 646.332C850.956 647.338 851.121 648.581 851.121 650.06C851.121 651.56 850.895 652.833 850.443 653.881C850.011 654.908 849.436 655.75 848.717 656.408C848.019 657.045 847.218 657.507 846.314 657.794C845.43 658.082 844.527 658.226 843.602 658.226C842.616 658.205 841.61 658.082 840.582 657.856V664.542L838.117 664.851V645.9ZM843.602 656.069C844.465 656.069 845.204 655.915 845.821 655.607C846.437 655.299 846.94 654.877 847.331 654.343C847.741 653.789 848.039 653.162 848.224 652.464C848.409 651.745 848.501 650.985 848.501 650.184C848.501 649.465 848.43 648.746 848.286 648.027C848.162 647.308 847.947 646.671 847.639 646.116C847.351 645.541 846.961 645.079 846.468 644.73C845.975 644.36 845.369 644.175 844.65 644.175C844.116 644.175 843.612 644.278 843.14 644.483C842.667 644.668 842.216 644.904 841.784 645.192C841.373 645.459 840.973 645.767 840.582 646.116V655.576C840.808 655.658 841.055 655.74 841.322 655.822C841.61 655.884 841.938 655.946 842.308 656.007C842.698 656.048 843.13 656.069 843.602 656.069ZM865.373 637.704V642.326H869.841V644.329H865.373V652.556C865.373 653.234 865.384 653.799 865.404 654.251C865.445 654.703 865.517 655.062 865.62 655.329C865.723 655.596 865.866 655.792 866.051 655.915C866.236 656.017 866.472 656.069 866.76 656.069C867.541 656.048 868.444 655.761 869.471 655.206L870.211 657.086C869.533 657.538 868.896 657.835 868.301 657.979C867.725 658.144 867.15 658.226 866.575 658.226C865.219 658.226 864.264 657.846 863.709 657.086C863.175 656.305 862.908 655.021 862.908 653.234V644.329H860.073V642.326H862.908V638.012L865.373 637.704ZM874.628 650.153C874.628 652.145 875.07 653.635 875.953 654.621C876.857 655.586 878.069 656.069 879.589 656.069C881.089 656.069 882.26 655.586 883.102 654.621C883.944 653.655 884.365 652.207 884.365 650.276C884.365 648.222 883.913 646.691 883.009 645.685C882.126 644.678 880.914 644.175 879.373 644.175C877.833 644.175 876.652 644.678 875.83 645.685C875.029 646.671 874.628 648.16 874.628 650.153ZM872.009 650.122C872.009 648.561 872.256 647.267 872.749 646.239C873.242 645.192 873.868 644.36 874.628 643.744C875.388 643.107 876.2 642.665 877.062 642.419C877.946 642.152 878.778 642.018 879.558 642.018C880.298 642.018 881.099 642.141 881.962 642.388C882.845 642.614 883.656 643.035 884.396 643.651C885.135 644.247 885.752 645.058 886.245 646.085C886.738 647.092 886.984 648.376 886.984 649.937C886.984 651.56 886.727 652.905 886.214 653.974C885.721 655.042 885.094 655.894 884.334 656.531C883.574 657.147 882.753 657.579 881.869 657.825C880.986 658.092 880.164 658.226 879.404 658.226C878.624 658.226 877.802 658.103 876.939 657.856C876.076 657.61 875.275 657.188 874.536 656.593C873.817 655.976 873.211 655.144 872.718 654.097C872.245 653.049 872.009 651.724 872.009 650.122ZM899.363 650.153C899.363 652.145 899.805 653.635 900.688 654.621C901.592 655.586 902.804 656.069 904.324 656.069C905.823 656.069 906.994 655.586 907.837 654.621C908.679 653.655 909.1 652.207 909.1 650.276C909.1 648.222 908.648 646.691 907.744 645.685C906.861 644.678 905.649 644.175 904.108 644.175C902.567 644.175 901.386 644.678 900.565 645.685C899.763 646.671 899.363 648.16 899.363 650.153ZM896.744 650.122C896.744 648.561 896.99 647.267 897.483 646.239C897.976 645.192 898.603 644.36 899.363 643.744C900.123 643.107 900.934 642.665 901.797 642.419C902.68 642.152 903.512 642.018 904.293 642.018C905.033 642.018 905.834 642.141 906.696 642.388C907.58 642.614 908.391 643.035 909.131 643.651C909.87 644.247 910.486 645.058 910.979 646.085C911.472 647.092 911.719 648.376 911.719 649.937C911.719 651.56 911.462 652.905 910.949 653.974C910.456 655.042 909.829 655.894 909.069 656.531C908.309 657.147 907.487 657.579 906.604 657.825C905.721 658.092 904.899 658.226 904.139 658.226C903.358 658.226 902.537 658.103 901.674 657.856C900.811 657.61 900.01 657.188 899.27 656.593C898.552 655.976 897.946 655.144 897.452 654.097C896.98 653.049 896.744 651.724 896.744 650.122ZM924.575 656.13H924.513C924.328 656.274 924.061 656.469 923.712 656.716C923.363 656.942 922.962 657.168 922.51 657.394C922.058 657.62 921.555 657.815 921 657.979C920.466 658.144 919.922 658.226 919.367 658.226C918.607 658.226 917.96 658.123 917.426 657.918C916.892 657.733 916.461 657.414 916.132 656.962C915.803 656.511 915.567 655.915 915.423 655.175C915.28 654.436 915.208 653.511 915.208 652.402V642.326H917.673V652.032C917.673 652.649 917.683 653.203 917.703 653.696C917.724 654.189 917.796 654.61 917.919 654.96C918.042 655.309 918.238 655.586 918.505 655.792C918.792 655.976 919.193 656.069 919.706 656.069C920.24 656.069 920.795 655.956 921.37 655.73C921.945 655.504 922.469 655.247 922.942 654.96C923.496 654.631 924.041 654.261 924.575 653.85V642.326H927.04V655.822C927.06 656.562 927.112 657.229 927.194 657.825L924.76 658.072L924.575 656.13ZM931.55 644.822C931.55 644.35 931.499 643.61 931.396 642.603L933.676 642.295L933.923 644.545H933.953C934.323 644.072 934.683 643.661 935.032 643.312C935.381 642.963 935.741 642.665 936.11 642.419C936.501 642.152 936.87 642.018 937.22 642.018C937.692 641.997 938.349 642.049 939.192 642.172L938.637 644.545C937.959 644.421 937.487 644.37 937.22 644.391C936.87 644.391 936.501 644.555 936.11 644.884C935.72 645.212 935.381 645.562 935.093 645.931C934.724 646.383 934.364 646.897 934.015 647.472V657.825H931.55V644.822ZM948.973 645.407C948.993 644.976 948.942 644.041 948.819 642.603L951.099 642.295L951.438 644.267C952.054 643.857 952.66 643.497 953.256 643.189C953.872 642.881 954.498 642.614 955.135 642.388C955.772 642.141 956.388 642.018 956.984 642.018C957.826 642.018 958.525 642.121 959.079 642.326C959.654 642.511 960.117 642.829 960.466 643.281C960.815 643.733 961.062 644.329 961.205 645.069C961.37 645.808 961.452 646.732 961.452 647.842V657.825H958.987V648.119C958.987 647.503 958.977 646.958 958.956 646.486C958.936 645.993 958.843 645.582 958.679 645.253C958.535 644.904 958.299 644.637 957.97 644.452C957.662 644.267 957.22 644.175 956.645 644.175C956.111 644.175 955.546 644.298 954.95 644.545C954.355 644.771 953.769 645.038 953.194 645.346C952.619 645.654 952.033 646.013 951.438 646.424V657.825H948.973V645.407ZM977.255 657.455C976.783 657.599 976.29 657.722 975.776 657.825C975.283 657.928 974.729 658.02 974.112 658.103C973.517 658.185 972.89 658.226 972.233 658.226C971.206 658.226 970.25 658.082 969.367 657.794C968.484 657.507 967.713 657.045 967.056 656.408C966.399 655.771 965.875 654.949 965.485 653.943C965.115 652.916 964.93 651.663 964.93 650.184C964.93 648.848 965.115 647.677 965.485 646.671C965.854 645.644 966.358 644.791 966.994 644.113C967.652 643.415 968.412 642.891 969.275 642.542C970.158 642.193 971.113 642.018 972.14 642.018C973.147 642.018 974.02 642.213 974.759 642.603C975.499 642.994 976.105 643.528 976.577 644.206C977.07 644.863 977.43 645.644 977.656 646.548C977.902 647.431 978.026 648.366 978.026 649.352L977.563 650.707H967.611C967.611 651.344 967.693 651.981 967.857 652.618C968.022 653.255 968.299 653.83 968.689 654.343C969.1 654.857 969.624 655.278 970.261 655.607C970.918 655.915 971.729 656.069 972.695 656.069C973.311 656.069 973.876 656.038 974.39 655.976C974.903 655.894 975.345 655.812 975.715 655.73C976.105 655.627 976.464 655.514 976.793 655.391L977.255 657.455ZM975.468 648.735C975.468 648.592 975.437 648.273 975.376 647.78C975.314 647.287 975.17 646.774 974.944 646.239C974.718 645.705 974.369 645.233 973.897 644.822C973.424 644.391 972.798 644.175 972.017 644.175C971.154 644.175 970.446 644.36 969.891 644.73C969.336 645.079 968.895 645.5 968.566 645.993C968.237 646.486 968.011 646.989 967.888 647.503C967.765 648.016 967.703 648.427 967.703 648.735H975.468ZM979.716 642.326H982.304L984.122 649.321C984.287 649.916 984.43 650.553 984.554 651.231C984.697 651.889 984.831 652.505 984.954 653.08C985.077 653.758 985.211 654.425 985.355 655.083H985.386C985.529 654.425 985.694 653.758 985.879 653.08C986.043 652.505 986.218 651.889 986.402 651.231C986.587 650.553 986.772 649.916 986.957 649.321L989.145 642.326H992.442L994.198 649.321C994.342 649.916 994.486 650.553 994.63 651.231C994.794 651.889 994.927 652.505 995.03 653.08C995.153 653.758 995.277 654.425 995.4 655.083H995.431C995.616 654.405 995.811 653.727 996.016 653.049C996.18 652.474 996.365 651.858 996.571 651.2C996.776 650.522 996.971 649.896 997.156 649.321L999.313 642.326H1001.87L996.786 657.825H994.044L991.826 649.321C991.62 648.54 991.446 647.842 991.302 647.225C991.178 646.589 991.065 646.055 990.963 645.623C990.86 645.11 990.768 644.658 990.685 644.267H990.624C990.542 644.658 990.439 645.11 990.316 645.623C990.213 646.055 990.069 646.589 989.884 647.225C989.699 647.842 989.494 648.54 989.268 649.321L986.649 657.825H983.907L979.716 642.326ZM1012.87 644.853C1012.01 644.586 1011.24 644.411 1010.56 644.329C1009.9 644.226 1009.3 644.175 1008.74 644.175C1008.02 644.175 1007.42 644.35 1006.92 644.699C1006.45 645.048 1006.22 645.5 1006.22 646.055C1006.24 646.548 1006.45 646.969 1006.86 647.318C1007.27 647.667 1007.75 647.986 1008.28 648.273C1008.83 648.54 1009.44 648.838 1010.1 649.167C1010.78 649.495 1011.4 649.865 1011.98 650.276C1012.57 650.687 1013.06 651.18 1013.43 651.755C1013.8 652.33 1013.99 653.018 1014.01 653.819C1013.99 654.682 1013.8 655.401 1013.43 655.976C1013.08 656.531 1012.61 656.983 1012.04 657.332C1011.48 657.661 1010.88 657.887 1010.22 658.01C1009.56 658.154 1008.95 658.226 1008.37 658.226C1007.63 658.226 1006.86 658.185 1006.06 658.103C1005.28 658.02 1004.44 657.846 1003.53 657.579L1004 655.36C1004.92 655.607 1005.76 655.792 1006.52 655.915C1007.28 656.017 1007.91 656.069 1008.4 656.069C1008.77 656.069 1009.13 656.028 1009.48 655.946C1009.85 655.863 1010.18 655.75 1010.47 655.607C1010.76 655.442 1010.98 655.237 1011.15 654.99C1011.33 654.744 1011.42 654.467 1011.42 654.158C1011.4 653.583 1011.21 653.101 1010.84 652.71C1010.47 652.299 1009.98 651.94 1009.39 651.632C1008.81 651.303 1008.19 650.985 1007.51 650.677C1006.85 650.348 1006.23 649.978 1005.63 649.567C1005.05 649.136 1004.57 648.633 1004.18 648.057C1003.79 647.462 1003.6 646.732 1003.6 645.87C1003.6 645.253 1003.75 644.709 1004.06 644.237C1004.39 643.744 1004.8 643.343 1005.29 643.035C1005.8 642.706 1006.36 642.46 1006.95 642.295C1007.57 642.11 1008.17 642.018 1008.74 642.018C1009.34 642.018 1010.01 642.069 1010.74 642.172C1011.48 642.254 1012.34 642.419 1013.3 642.665L1012.87 644.853ZM1017.34 634.746L1019.8 634.469V657.825H1017.34V634.746ZM1035.69 657.455C1035.22 657.599 1034.73 657.722 1034.21 657.825C1033.72 657.928 1033.17 658.02 1032.55 658.103C1031.95 658.185 1031.33 658.226 1030.67 658.226C1029.64 658.226 1028.69 658.082 1027.8 657.794C1026.92 657.507 1026.15 657.045 1025.49 656.408C1024.84 655.771 1024.31 654.949 1023.92 653.943C1023.55 652.916 1023.37 651.663 1023.37 650.184C1023.37 648.848 1023.55 647.677 1023.92 646.671C1024.29 645.644 1024.79 644.791 1025.43 644.113C1026.09 643.415 1026.85 642.891 1027.71 642.542C1028.59 642.193 1029.55 642.018 1030.58 642.018C1031.58 642.018 1032.46 642.213 1033.2 642.603C1033.94 642.994 1034.54 643.528 1035.01 644.206C1035.51 644.863 1035.87 645.644 1036.09 646.548C1036.34 647.431 1036.46 648.366 1036.46 649.352L1036 650.707H1026.05C1026.05 651.344 1026.13 651.981 1026.29 652.618C1026.46 653.255 1026.74 653.83 1027.13 654.343C1027.54 654.857 1028.06 655.278 1028.7 655.607C1029.35 655.915 1030.17 656.069 1031.13 656.069C1031.75 656.069 1032.31 656.038 1032.83 655.976C1033.34 655.894 1033.78 655.812 1034.15 655.73C1034.54 655.627 1034.9 655.514 1035.23 655.391L1035.69 657.455ZM1033.9 648.735C1033.9 648.592 1033.87 648.273 1033.81 647.78C1033.75 647.287 1033.61 646.774 1033.38 646.239C1033.15 645.705 1032.81 645.233 1032.33 644.822C1031.86 644.391 1031.23 644.175 1030.45 644.175C1029.59 644.175 1028.88 644.36 1028.33 644.73C1027.77 645.079 1027.33 645.5 1027 645.993C1026.67 646.486 1026.45 646.989 1026.32 647.503C1026.2 648.016 1026.14 648.427 1026.14 648.735H1033.9ZM1043.42 637.704V642.326H1047.89V644.329H1043.42V652.556C1043.42 653.234 1043.43 653.799 1043.45 654.251C1043.49 654.703 1043.57 655.062 1043.67 655.329C1043.77 655.596 1043.91 655.792 1044.1 655.915C1044.28 656.017 1044.52 656.069 1044.81 656.069C1045.59 656.048 1046.49 655.761 1047.52 655.206L1048.26 657.086C1047.58 657.538 1046.94 657.835 1046.35 657.979C1045.77 658.144 1045.2 658.226 1044.62 658.226C1043.27 658.226 1042.31 657.846 1041.76 657.086C1041.22 656.305 1040.96 655.021 1040.96 653.234V644.329H1038.12V642.326H1040.96V638.012L1043.42 637.704ZM1054.65 637.704V642.326H1059.11V644.329H1054.65V652.556C1054.65 653.234 1054.66 653.799 1054.68 654.251C1054.72 654.703 1054.79 655.062 1054.89 655.329C1054.99 655.596 1055.14 655.792 1055.32 655.915C1055.51 656.017 1055.74 656.069 1056.03 656.069C1056.81 656.048 1057.72 655.761 1058.74 655.206L1059.48 657.086C1058.81 657.538 1058.17 657.835 1057.57 657.979C1057 658.144 1056.42 658.226 1055.85 658.226C1054.49 658.226 1053.54 657.846 1052.98 657.086C1052.45 656.305 1052.18 655.021 1052.18 653.234V644.329H1049.35V642.326H1052.18V638.012L1054.65 637.704ZM1073.61 657.455C1073.13 657.599 1072.64 657.722 1072.13 657.825C1071.63 657.928 1071.08 658.02 1070.46 658.103C1069.87 658.185 1069.24 658.226 1068.58 658.226C1067.56 658.226 1066.6 658.082 1065.72 657.794C1064.84 657.507 1064.06 657.045 1063.41 656.408C1062.75 655.771 1062.23 654.949 1061.84 653.943C1061.47 652.916 1061.28 651.663 1061.28 650.184C1061.28 648.848 1061.47 647.677 1061.84 646.671C1062.21 645.644 1062.71 644.791 1063.35 644.113C1064 643.415 1064.76 642.891 1065.63 642.542C1066.51 642.193 1067.46 642.018 1068.49 642.018C1069.5 642.018 1070.37 642.213 1071.11 642.603C1071.85 642.994 1072.46 643.528 1072.93 644.206C1073.42 644.863 1073.78 645.644 1074.01 646.548C1074.25 647.431 1074.38 648.366 1074.38 649.352L1073.91 650.707H1063.96C1063.96 651.344 1064.04 651.981 1064.21 652.618C1064.37 653.255 1064.65 653.83 1065.04 654.343C1065.45 654.857 1065.98 655.278 1066.61 655.607C1067.27 655.915 1068.08 656.069 1069.05 656.069C1069.66 656.069 1070.23 656.038 1070.74 655.976C1071.25 655.894 1071.7 655.812 1072.07 655.73C1072.46 655.627 1072.82 655.514 1073.14 655.391L1073.61 657.455ZM1071.82 648.735C1071.82 648.592 1071.79 648.273 1071.73 647.78C1071.67 647.287 1071.52 646.774 1071.3 646.239C1071.07 645.705 1070.72 645.233 1070.25 644.822C1069.78 644.391 1069.15 644.175 1068.37 644.175C1067.51 644.175 1066.8 644.36 1066.24 644.73C1065.69 645.079 1065.25 645.5 1064.92 645.993C1064.59 646.486 1064.36 646.989 1064.24 647.503C1064.12 648.016 1064.05 648.427 1064.05 648.735H1071.82ZM1077.76 644.822C1077.76 644.35 1077.71 643.61 1077.61 642.603L1079.89 642.295L1080.13 644.545H1080.17C1080.54 644.072 1080.89 643.661 1081.24 643.312C1081.59 642.963 1081.95 642.665 1082.32 642.419C1082.71 642.152 1083.08 642.018 1083.43 642.018C1083.9 641.997 1084.56 642.049 1085.4 642.172L1084.85 644.545C1084.17 644.421 1083.7 644.37 1083.43 644.391C1083.08 644.391 1082.71 644.555 1082.32 644.884C1081.93 645.212 1081.59 645.562 1081.31 645.931C1080.94 646.383 1080.58 646.897 1080.23 647.472V657.825H1077.76V644.822ZM1098.76 637.704V642.326H1103.23V644.329H1098.76V652.556C1098.76 653.234 1098.77 653.799 1098.79 654.251C1098.83 654.703 1098.9 655.062 1099.01 655.329C1099.11 655.596 1099.25 655.792 1099.44 655.915C1099.62 656.017 1099.86 656.069 1100.15 656.069C1100.93 656.048 1101.83 655.761 1102.86 655.206L1103.6 657.086C1102.92 657.538 1102.28 657.835 1101.69 657.979C1101.11 658.144 1100.54 658.226 1099.96 658.226C1098.6 658.226 1097.65 657.846 1097.1 657.086C1096.56 656.305 1096.29 655.021 1096.29 653.234V644.329H1093.46V642.326H1096.29V638.012L1098.76 637.704ZM1108.01 650.153C1108.01 652.145 1108.46 653.635 1109.34 654.621C1110.24 655.586 1111.45 656.069 1112.97 656.069C1114.47 656.069 1115.65 655.586 1116.49 654.621C1117.33 653.655 1117.75 652.207 1117.75 650.276C1117.75 648.222 1117.3 646.691 1116.39 645.685C1115.51 644.678 1114.3 644.175 1112.76 644.175C1111.22 644.175 1110.04 644.678 1109.22 645.685C1108.41 646.671 1108.01 648.16 1108.01 650.153ZM1105.39 650.122C1105.39 648.561 1105.64 647.267 1106.13 646.239C1106.63 645.192 1107.25 644.36 1108.01 643.744C1108.77 643.107 1109.59 642.665 1110.45 642.419C1111.33 642.152 1112.16 642.018 1112.94 642.018C1113.68 642.018 1114.48 642.141 1115.35 642.388C1116.23 642.614 1117.04 643.035 1117.78 643.651C1118.52 644.247 1119.14 645.058 1119.63 646.085C1120.12 647.092 1120.37 648.376 1120.37 649.937C1120.37 651.56 1120.11 652.905 1119.6 653.974C1119.11 655.042 1118.48 655.894 1117.72 656.531C1116.96 657.147 1116.14 657.579 1115.25 657.825C1114.37 658.092 1113.55 658.226 1112.79 658.226C1112.01 658.226 1111.19 658.103 1110.32 657.856C1109.46 657.61 1108.66 657.188 1107.92 656.593C1107.2 655.976 1106.6 655.144 1106.1 654.097C1105.63 653.049 1105.39 651.724 1105.39 650.122ZM1133.63 644.637C1132.89 644.432 1132.31 644.308 1131.9 644.267C1131.49 644.206 1131.07 644.175 1130.64 644.175C1129.77 644.175 1129.04 644.329 1128.42 644.637C1127.8 644.945 1127.29 645.377 1126.88 645.931C1126.49 646.465 1126.2 647.092 1126.02 647.811C1125.83 648.509 1125.74 649.259 1125.74 650.06C1125.74 650.779 1125.81 651.498 1125.95 652.217C1126.12 652.936 1126.36 653.583 1126.69 654.158C1127.02 654.734 1127.42 655.196 1127.9 655.545C1128.37 655.894 1128.93 656.069 1129.59 656.069C1130.04 656.069 1130.5 655.987 1130.98 655.822C1131.47 655.658 1131.92 655.473 1132.33 655.268C1132.74 655.042 1133.17 654.764 1133.63 654.436V644.637ZM1133.66 656.593C1133.18 656.921 1132.72 657.199 1132.27 657.425C1131.84 657.63 1131.36 657.815 1130.82 657.979C1130.31 658.144 1129.81 658.226 1129.31 658.226C1127.38 658.226 1125.86 657.548 1124.75 656.192C1123.66 654.816 1123.12 652.813 1123.12 650.184C1123.12 648.622 1123.37 647.318 1123.86 646.27C1124.37 645.223 1125.01 644.391 1125.77 643.774C1126.53 643.138 1127.34 642.686 1128.2 642.419C1129.09 642.152 1129.9 642.018 1130.64 642.018C1131.01 642.018 1131.4 642.049 1131.81 642.11C1132.22 642.152 1132.83 642.275 1133.63 642.48V634.746L1136.09 634.469V655.021C1136.09 655.309 1136.09 655.617 1136.09 655.946C1136.11 656.254 1136.13 656.562 1136.15 656.87C1136.19 657.178 1136.24 657.497 1136.28 657.825L1133.9 658.072L1133.66 656.593ZM1149.19 650.707C1148.78 650.728 1148.39 650.748 1148.02 650.769C1147.65 650.79 1147.28 650.82 1146.91 650.861C1146.56 650.882 1146.24 650.913 1145.95 650.954C1144.47 651.139 1143.43 651.467 1142.81 651.94C1142.19 652.392 1141.89 653.049 1141.89 653.912C1141.89 654.631 1142.1 655.175 1142.53 655.545C1142.99 655.894 1143.57 656.069 1144.29 656.069C1145.28 656.069 1146.15 655.905 1146.91 655.576C1147.69 655.227 1148.45 654.775 1149.19 654.22V650.707ZM1149.16 656.377C1148.19 656.932 1147.29 657.384 1146.45 657.733C1145.62 658.061 1144.73 658.226 1143.77 658.226C1142.39 658.226 1141.29 657.897 1140.47 657.24C1139.67 656.562 1139.27 655.453 1139.27 653.912C1139.27 653.111 1139.47 652.412 1139.88 651.817C1140.29 651.221 1140.83 650.728 1141.49 650.338C1142.16 649.927 1142.92 649.608 1143.77 649.382C1144.61 649.156 1145.47 649.013 1146.35 648.951C1146.72 648.91 1147.21 648.879 1147.8 648.859C1148.4 648.817 1148.86 648.787 1149.19 648.766C1149.19 648.047 1149.17 647.41 1149.13 646.856C1149.09 646.281 1148.96 645.798 1148.76 645.407C1148.55 644.997 1148.24 644.689 1147.83 644.483C1147.44 644.278 1146.88 644.175 1146.14 644.175C1145.54 644.175 1144.97 644.216 1144.41 644.298C1143.86 644.36 1143.37 644.432 1142.93 644.514C1142.42 644.617 1141.95 644.73 1141.52 644.853L1141.02 642.727C1141.54 642.603 1142.09 642.491 1142.69 642.388C1143.2 642.285 1143.8 642.203 1144.47 642.141C1145.15 642.059 1145.88 642.018 1146.66 642.018C1147.71 642.018 1148.55 642.172 1149.19 642.48C1149.85 642.788 1150.35 643.209 1150.7 643.744C1151.07 644.257 1151.31 644.853 1151.44 645.531C1151.58 646.188 1151.65 646.887 1151.65 647.626V655.021C1151.65 655.309 1151.65 655.617 1151.65 655.946C1151.67 656.254 1151.69 656.562 1151.72 656.87C1151.76 657.178 1151.8 657.497 1151.84 657.825L1149.47 658.072L1149.16 656.377ZM1153.84 642.326H1156.46L1159.36 649.321C1159.65 649.999 1159.9 650.677 1160.13 651.354C1160.38 652.032 1160.59 652.638 1160.78 653.172C1161 653.809 1161.2 654.425 1161.36 655.021H1161.39C1161.58 654.425 1161.78 653.809 1162.01 653.172C1162.19 652.638 1162.41 652.032 1162.66 651.354C1162.9 650.677 1163.16 649.999 1163.43 649.321L1166.11 642.326H1168.7L1161.36 660.814C1161.08 661.574 1160.7 662.231 1160.22 662.786C1159.77 663.341 1159.33 663.803 1158.9 664.173C1158.38 664.604 1157.85 664.974 1157.3 665.282L1156.09 663.156C1156.53 662.95 1156.93 662.694 1157.3 662.386C1157.62 662.118 1157.95 661.78 1158.28 661.369C1158.61 660.978 1158.88 660.506 1159.08 659.951L1160.04 657.425L1153.84 642.326ZM1169.67 656.007C1169.67 655.514 1169.85 655.093 1170.2 654.744C1170.55 654.374 1170.98 654.189 1171.49 654.189C1172.03 654.189 1172.48 654.374 1172.85 654.744C1173.22 655.093 1173.4 655.514 1173.4 656.007C1173.4 656.521 1173.22 656.952 1172.85 657.301C1172.48 657.651 1172.03 657.825 1171.49 657.825C1170.98 657.825 1170.55 657.651 1170.2 657.301C1169.85 656.952 1169.67 656.521 1169.67 656.007Z" fill="white"/>
<rect x="859" y="818.825" width="213" height="40" rx="20" fill="#B55050"/>
<path d="M950.158 844.048C949.303 844.048 948.473 843.93 947.668 843.695C946.863 843.447 946.108 843.07 945.402 842.562L946.721 840.425C947.303 840.809 947.891 841.1 948.486 841.299C949.093 841.484 949.656 841.577 950.176 841.577C950.771 841.577 951.068 841.398 951.068 841.038V841.001C951.068 840.803 950.932 840.648 950.66 840.537C950.387 840.425 949.985 840.295 949.452 840.147C948.956 840.023 948.492 839.88 948.059 839.719C947.625 839.546 947.247 839.342 946.925 839.106C946.603 838.859 946.349 838.561 946.164 838.214C945.978 837.868 945.885 837.44 945.885 836.933V836.895C945.885 836.363 945.984 835.892 946.182 835.483C946.393 835.062 946.678 834.716 947.037 834.443C947.396 834.158 947.817 833.941 948.3 833.793C948.795 833.644 949.334 833.57 949.916 833.57C950.66 833.57 951.39 833.675 952.109 833.886C952.827 834.084 953.477 834.369 954.059 834.74L952.852 836.97C952.332 836.685 951.805 836.462 951.273 836.301C950.74 836.127 950.276 836.041 949.879 836.041C949.607 836.041 949.402 836.09 949.266 836.189C949.13 836.276 949.062 836.388 949.062 836.524V836.561C949.062 836.759 949.198 836.92 949.471 837.044C949.755 837.156 950.164 837.292 950.697 837.453C951.192 837.589 951.657 837.744 952.09 837.917C952.524 838.078 952.901 838.283 953.223 838.53C953.545 838.766 953.799 839.057 953.985 839.404C954.171 839.75 954.264 840.165 954.264 840.648V840.685C954.264 841.243 954.165 841.732 953.967 842.153C953.768 842.562 953.49 842.909 953.13 843.194C952.771 843.478 952.338 843.689 951.83 843.825C951.322 843.974 950.765 844.048 950.158 844.048ZM962.135 837.973C962.073 837.416 961.887 836.976 961.578 836.654C961.268 836.319 960.872 836.152 960.389 836.152C959.918 836.152 959.534 836.319 959.237 836.654C958.939 836.976 958.741 837.416 958.642 837.973H962.135ZM960.686 844.067C959.893 844.067 959.169 843.943 958.512 843.695C957.856 843.435 957.286 843.082 956.803 842.636C956.332 842.178 955.961 841.627 955.688 840.983C955.428 840.339 955.298 839.626 955.298 838.846V838.809C955.298 838.078 955.422 837.397 955.67 836.765C955.917 836.121 956.264 835.564 956.71 835.093C957.168 834.61 957.707 834.232 958.326 833.96C958.946 833.688 959.627 833.551 960.37 833.551C961.237 833.551 961.986 833.7 962.618 833.997C963.262 834.294 963.788 834.697 964.197 835.205C964.618 835.7 964.928 836.282 965.126 836.951C965.337 837.608 965.442 838.307 965.442 839.051C965.442 839.162 965.442 839.28 965.442 839.404C965.442 839.527 965.436 839.651 965.423 839.775H958.698C958.834 840.332 959.088 840.747 959.46 841.02C959.844 841.292 960.314 841.429 960.872 841.429C961.293 841.429 961.677 841.348 962.023 841.187C962.383 841.026 962.742 840.766 963.101 840.407L965.052 842.023C964.569 842.642 963.968 843.138 963.25 843.509C962.544 843.881 961.689 844.067 960.686 844.067ZM966.956 833.774H970.485V835.186C970.646 834.976 970.826 834.771 971.024 834.573C971.222 834.375 971.445 834.202 971.693 834.053C971.941 833.904 972.213 833.787 972.51 833.7C972.808 833.601 973.136 833.551 973.495 833.551C974.573 833.551 975.409 833.879 976.003 834.536C976.61 835.192 976.914 836.097 976.914 837.248V843.825H973.384V838.382C973.384 837.824 973.254 837.403 972.994 837.118C972.733 836.833 972.393 836.691 971.972 836.691C971.538 836.691 971.179 836.833 970.894 837.118C970.622 837.403 970.485 837.824 970.485 838.382V843.825H966.956V833.774ZM982.725 844.03C981.66 844.03 980.83 843.776 980.235 843.268C979.641 842.76 979.343 841.905 979.343 840.704V836.617H978.154V833.774H979.343V831.229H982.873V833.774H985.214V836.617H982.873V840.017C982.873 840.376 982.954 840.636 983.115 840.797C983.276 840.946 983.517 841.02 983.839 841.02C984.075 841.02 984.304 840.989 984.527 840.927C984.75 840.865 984.967 840.785 985.177 840.685V843.454C984.855 843.627 984.49 843.763 984.081 843.862C983.672 843.974 983.22 844.03 982.725 844.03Z" fill="white"/>
</svg>
